<svg width="13" height="13" viewBox="0 0 13 13" fill="none" xmlns="http://www.w3.org/2000/svg">
<path d="M2.28805 1.1007L6.50005 5.3127L10.6947 1.11803C10.7682 1.03979 10.8568 0.977194 10.9551 0.934006C11.0534 0.890818 11.1594 0.867925 11.2667 0.866699C11.4966 0.866699 11.717 0.958008 11.8795 1.12054C12.0421 1.28307 12.1334 1.50351 12.1334 1.73337C12.1354 1.83962 12.1157 1.94517 12.0755 2.04353C12.0352 2.14189 11.9753 2.23099 11.8994 2.30537L7.66138 6.50003L11.8994 10.738C12.0422 10.8778 12.126 11.067 12.1334 11.2667C12.1334 11.4966 12.0421 11.717 11.8795 11.8795C11.717 12.0421 11.4966 12.1334 11.2667 12.1334C11.1563 12.1379 11.0461 12.1195 10.9431 12.0792C10.8402 12.0389 10.7467 11.9777 10.6687 11.8994L6.50005 7.68737L2.29672 11.8907C2.22349 11.9663 2.13601 12.0267 2.03932 12.0684C1.94263 12.11 1.83865 12.1321 1.73338 12.1334C1.50353 12.1334 1.28309 12.0421 1.12056 11.8795C0.958027 11.717 0.866718 11.4966 0.866718 11.2667C0.864698 11.1604 0.884412 11.0549 0.924651 10.9565C0.964889 10.8582 1.0248 10.7691 1.10072 10.6947L5.33872 6.50003L1.10072 2.26203C0.957878 2.12229 0.874119 1.93306 0.866718 1.73337C0.866718 1.50351 0.958027 1.28307 1.12056 1.12054C1.28309 0.958008 1.50353 0.866699 1.73338 0.866699C1.94138 0.869299 2.14072 0.953366 2.28805 1.1007Z" fill="#675AA5"/>
</svg>
