<svg width="30" height="30" viewBox="0 0 30 30" fill="none" xmlns="http://www.w3.org/2000/svg">
<g clip-path="url(#clip0_201:153)">
<rect width="29.6073" height="30" transform="translate(0.3927)" fill="white"/>
<path d="M18.2243 25C17.4603 25.001 16.715 24.7607 16.092 24.3127C15.469 23.8647 14.9992 23.2311 14.7479 22.5H21.7007C21.4494 23.2311 20.9797 23.8647 20.3566 24.3127C19.7336 24.7607 18.9883 25.001 18.2243 25ZM9.58886 15.7325L9.58886 10C9.58886 5.97875 12.2844 2.59125 15.9359 1.5725C16.2974 0.65 17.1807 0 18.2243 0C19.268 0 20.1512 0.65 20.5127 1.5725C24.1643 2.5925 26.8598 5.97875 26.8598 10L26.8598 15.7325L28.9656 17.8662C29.0804 17.9821 29.1714 18.1199 29.2334 18.2715C29.2954 18.4232 29.3273 18.5858 29.327 18.75V20C29.327 20.3315 29.1971 20.6495 28.9657 20.8839C28.7344 21.1183 28.4206 21.25 28.0934 21.25L8.35522 21.25C8.02804 21.25 7.71426 21.1183 7.48291 20.8839C7.25156 20.6495 7.12159 20.3315 7.12159 20V18.75C7.12135 18.5858 7.15317 18.4232 7.2152 18.2715C7.27724 18.1199 7.36826 17.9821 7.48304 17.8662L9.58886 15.7325Z" fill="black"/>
<ellipse cx="25.2897" cy="6.13638" rx="4.71025" ry="4.77273" fill="#FF0000"/>
</g>
<defs>
<clipPath id="clip0_201:153">
<rect width="29.6073" height="30" fill="white" transform="translate(0.3927)"/>
</clipPath>
</defs>
</svg>
