<svg width="35" height="35" viewBox="0 0 35 35" fill="none" xmlns="http://www.w3.org/2000/svg">
<path d="M11.6666 18.9583C11.2799 18.9583 10.9089 18.8047 10.6354 18.5312C10.362 18.2577 10.2083 17.8868 10.2083 17.5C10.2083 17.1132 10.362 16.7423 10.6354 16.4688C10.9089 16.1953 11.2799 16.0417 11.6666 16.0417C12.0534 16.0417 12.4244 16.1953 12.6978 16.4688C12.9713 16.7423 13.125 17.1132 13.125 17.5C13.125 17.8868 12.9713 18.2577 12.6978 18.5312C12.4244 18.8047 12.0534 18.9583 11.6666 18.9583Z" fill="#CECECE"/>
<path d="M11.6666 24.7917C11.2799 24.7917 10.9089 24.638 10.6354 24.3645C10.362 24.091 10.2083 23.7201 10.2083 23.3333C10.2083 22.9466 10.362 22.5756 10.6354 22.3021C10.9089 22.0286 11.2799 21.875 11.6666 21.875C12.0534 21.875 12.4244 22.0286 12.6978 22.3021C12.9713 22.5756 13.125 22.9466 13.125 23.3333C13.125 23.7201 12.9713 24.091 12.6978 24.3645C12.4244 24.638 12.0534 24.7917 11.6666 24.7917Z" fill="#CECECE"/>
<path d="M16.0417 23.3333C16.0417 23.7201 16.1953 24.091 16.4688 24.3645C16.7423 24.638 17.1132 24.7917 17.5 24.7917C17.8868 24.7917 18.2577 24.638 18.5312 24.3645C18.8047 24.091 18.9584 23.7201 18.9584 23.3333C18.9584 22.9466 18.8047 22.5756 18.5312 22.3021C18.2577 22.0286 17.8868 21.875 17.5 21.875C17.1132 21.875 16.7423 22.0286 16.4688 22.3021C16.1953 22.5756 16.0417 22.9466 16.0417 23.3333Z" fill="#CECECE"/>
<path d="M23.3333 24.7917C22.9466 24.7917 22.5756 24.638 22.3021 24.3645C22.0286 24.091 21.875 23.7201 21.875 23.3333C21.875 22.9466 22.0286 22.5756 22.3021 22.3021C22.5756 22.0286 22.9466 21.875 23.3333 21.875C23.7201 21.875 24.091 22.0286 24.3645 22.3021C24.638 22.5756 24.7917 22.9466 24.7917 23.3333C24.7917 23.7201 24.638 24.091 24.3645 24.3645C24.091 24.638 23.7201 24.7917 23.3333 24.7917Z" fill="#CECECE"/>
<path d="M16.0417 17.5C16.0417 17.8868 16.1953 18.2577 16.4688 18.5312C16.7423 18.8047 17.1132 18.9583 17.5 18.9583C17.8868 18.9583 18.2577 18.8047 18.5312 18.5312C18.8047 18.2577 18.9584 17.8868 18.9584 17.5C18.9584 17.1132 18.8047 16.7423 18.5312 16.4688C18.2577 16.1953 17.8868 16.0417 17.5 16.0417C17.1132 16.0417 16.7423 16.1953 16.4688 16.4688C16.1953 16.7423 16.0417 17.1132 16.0417 17.5Z" fill="#CECECE"/>
<path d="M23.3333 18.9583C22.9466 18.9583 22.5756 18.8047 22.3021 18.5312C22.0286 18.2577 21.875 17.8868 21.875 17.5C21.875 17.1132 22.0286 16.7423 22.3021 16.4688C22.5756 16.1953 22.9466 16.0417 23.3333 16.0417C23.7201 16.0417 24.091 16.1953 24.3645 16.4688C24.638 16.7423 24.7917 17.1132 24.7917 17.5C24.7917 17.8868 24.638 18.2577 24.3645 18.5312C24.091 18.8047 23.7201 18.9583 23.3333 18.9583Z" fill="#CECECE"/>
<path d="M11.6666 10.2083C11.2799 10.2083 10.9089 10.362 10.6354 10.6355C10.362 10.909 10.2083 11.2799 10.2083 11.6667C10.2083 12.0534 10.362 12.4244 10.6354 12.6979C10.9089 12.9713 11.2799 13.125 11.6666 13.125H23.3333C23.7201 13.125 24.091 12.9713 24.3645 12.6979C24.638 12.4244 24.7916 12.0534 24.7916 11.6667C24.7916 11.2799 24.638 10.909 24.3645 10.6355C24.091 10.362 23.7201 10.2083 23.3333 10.2083H11.6666Z" fill="#CECECE"/>
<path fill-rule="evenodd" clip-rule="evenodd" d="M8.75 4.375C7.58968 4.375 6.47688 4.83594 5.65641 5.65641C4.83594 6.47688 4.375 7.58968 4.375 8.75V26.25C4.375 27.4103 4.83594 28.5231 5.65641 29.3436C6.47688 30.1641 7.58968 30.625 8.75 30.625H26.25C27.4103 30.625 28.5231 30.1641 29.3436 29.3436C30.1641 28.5231 30.625 27.4103 30.625 26.25V8.75C30.625 7.58968 30.1641 6.47688 29.3436 5.65641C28.5231 4.83594 27.4103 4.375 26.25 4.375H8.75ZM26.25 7.29167H8.75C8.36323 7.29167 7.99229 7.44531 7.7188 7.7188C7.44531 7.99229 7.29167 8.36323 7.29167 8.75V26.25C7.29167 26.6368 7.44531 27.0077 7.7188 27.2812C7.99229 27.5547 8.36323 27.7083 8.75 27.7083H26.25C26.6368 27.7083 27.0077 27.5547 27.2812 27.2812C27.5547 27.0077 27.7083 26.6368 27.7083 26.25V8.75C27.7083 8.36323 27.5547 7.99229 27.2812 7.7188C27.0077 7.44531 26.6368 7.29167 26.25 7.29167Z" fill="#CECECE"/>
</svg>
