<svg width="33" height="30" viewBox="0 0 33 30" fill="none" xmlns="http://www.w3.org/2000/svg">
<path d="M3.04884 15.1134L15.2063 2.85697C15.7183 2.33975 16.7017 2.33975 17.2137 2.85697L29.3712 15.1134C29.5462 15.2894 29.661 15.5077 29.7018 15.7418C29.7426 15.976 29.7075 16.2158 29.6008 16.4322C29.3847 16.8746 28.9011 17.159 28.3675 17.159H25.6658L25.6658 25.7385C25.6658 26.0635 25.5235 26.3753 25.2702 26.6051C25.0169 26.835 24.6733 26.9641 24.315 26.9641H20.2625C19.9042 26.9641 19.5607 26.835 19.3073 26.6051C19.054 26.3753 18.9117 26.0635 18.9117 25.7385L18.9117 20.8359L13.5083 20.8359V25.7385C13.5083 26.0635 13.366 26.3753 13.1127 26.6051C12.8594 26.835 12.5158 26.9641 12.1575 26.9641H8.10501C7.74675 26.9641 7.40316 26.835 7.14983 26.6051C6.8965 26.3753 6.75418 26.0635 6.75418 25.7385V17.159L4.05251 17.159C3.7909 17.16 3.53462 17.0919 3.31491 16.963C3.0952 16.8342 2.92156 16.6501 2.81516 16.4333C2.70877 16.2164 2.67421 15.9762 2.7157 15.7418C2.75719 15.5074 2.87294 15.2891 3.04884 15.1134Z" fill="#CECECE"/>
</svg>
