<svg width="32" height="30" viewBox="0 0 32 30" fill="none" xmlns="http://www.w3.org/2000/svg">
<path d="M2.6435 22.5063C2.6435 23.1938 3.233 23.75 3.95865 23.75H14.5459C14.8947 23.75 15.2292 23.619 15.4758 23.3857C15.7225 23.1525 15.861 22.8361 15.861 22.5063C15.861 22.1764 15.7225 21.86 15.4758 21.6268C15.2292 21.3935 14.8947 21.2625 14.5459 21.2625H3.95865C3.23168 21.2625 2.6435 21.8188 2.6435 22.5063Z" fill="black"/>
<path d="M2.64351 15C2.64351 15.6875 3.23301 16.2437 3.95865 16.2437L27.7634 16.2437C28.1122 16.2437 28.4467 16.1127 28.6934 15.8794C28.94 15.6462 29.0786 15.3298 29.0786 15C29.0786 14.6701 28.94 14.3538 28.6934 14.1205C28.4467 13.8873 28.1122 13.7562 27.7634 13.7562L3.95865 13.7562C3.23169 13.7562 2.64351 14.3137 2.64351 15Z" fill="black"/>
<path d="M3.95865 8.7375C3.60986 8.7375 3.27534 8.60646 3.02871 8.37321C2.78207 8.13997 2.64351 7.82361 2.64351 7.49375C2.64351 7.16389 2.78207 6.84753 3.02871 6.61429C3.27534 6.38104 3.60986 6.25 3.95865 6.25L19.8329 6.25C20.0056 6.25 20.1766 6.28217 20.3362 6.34467C20.4957 6.40718 20.6407 6.49879 20.7628 6.61429C20.885 6.72978 20.9818 6.86689 21.0479 7.01779C21.114 7.16869 21.148 7.33042 21.148 7.49375C21.148 7.65708 21.114 7.81881 21.0479 7.96971C20.9818 8.12061 20.885 8.25772 20.7628 8.37321C20.6407 8.48871 20.4957 8.58032 20.3362 8.64282C20.1766 8.70533 20.0056 8.7375 19.8329 8.7375L3.95865 8.7375Z" fill="black"/>
</svg>
