<svg width="36" height="36" viewBox="0 0 36 36" fill="none" xmlns="http://www.w3.org/2000/svg">
<path d="M6.33599 3.04802L18 14.712L29.616 3.09602C29.8196 2.87935 30.0648 2.70601 30.337 2.58641C30.6092 2.46682 30.9027 2.40342 31.2 2.40002C31.8365 2.40002 32.447 2.65288 32.897 3.10297C33.3471 3.55306 33.6 4.1635 33.6 4.80002C33.6056 5.09427 33.551 5.38655 33.4396 5.65894C33.3281 5.93133 33.1622 6.17807 32.952 6.38402L21.216 18L32.952 29.736C33.3475 30.123 33.5795 30.647 33.6 31.2C33.6 31.8365 33.3471 32.447 32.897 32.8971C32.447 33.3472 31.8365 33.6 31.2 33.6C30.8941 33.6127 30.589 33.5617 30.3039 33.4501C30.0188 33.3386 29.76 33.1689 29.544 32.952L18 21.288L6.35999 32.928C6.1572 33.1375 5.91494 33.3047 5.64719 33.42C5.37944 33.5354 5.0915 33.5965 4.79999 33.6C4.16347 33.6 3.55302 33.3472 3.10293 32.8971C2.65284 32.447 2.39999 31.8365 2.39999 31.2C2.39439 30.9058 2.44898 30.6135 2.56042 30.3411C2.67185 30.0687 2.83776 29.822 3.04799 29.616L14.784 18L3.04799 6.26402C2.65243 5.87705 2.42048 5.35301 2.39999 4.80002C2.39999 4.1635 2.65284 3.55306 3.10293 3.10297C3.55302 2.65288 4.16347 2.40002 4.79999 2.40002C5.37599 2.40722 5.92799 2.64002 6.33599 3.04802Z" fill="#675AA5"/>
</svg>
