<svg width="41" height="48" viewBox="0 0 41 48" fill="none" xmlns="http://www.w3.org/2000/svg">
<g clip-path="url(#clip0_15:1809)">
<path d="M39.4945 9.17877L30.5365 1.31315C29.5755 0.469397 28.2729 -0.00872803 26.9169 -0.00872803H5.125C2.29557 0.000646974 0 2.01627 0 4.50065V43.5007C0 45.985 2.29557 48.0007 5.125 48.0007H35.875C38.7044 48.0007 41 45.985 41 43.5007V12.3663C41 11.1756 40.4555 10.0225 39.4945 9.17877ZM35.4586 12.0006H27.3333V4.86627L35.4586 12.0006ZM5.125 43.5007V4.50065H22.2083V14.2506C22.2083 15.4975 23.3508 16.5007 24.7708 16.5007H35.875V43.5007H5.125ZM31.8391 30.0288C30.5365 28.9038 26.8208 29.2132 24.963 29.4194C23.1266 28.435 21.8987 27.0757 21.0339 25.0788C21.4503 23.5694 22.1122 21.2725 21.6104 19.8288C21.162 17.3725 17.5745 17.6163 17.062 19.2757C16.5922 20.785 17.0193 22.885 17.8094 25.5663C16.7417 27.8069 15.1508 30.8163 14.0297 32.5413C11.8943 33.5069 9.01146 34.9975 8.58438 36.8725C8.23203 38.3538 11.3604 42.0475 16.7096 33.9475C19.1013 33.2538 21.7065 32.4007 24.0128 32.0632C26.0307 33.0194 28.3904 33.6569 29.9706 33.6569C32.6932 33.6569 32.9602 31.0132 31.8391 30.0288ZM10.6878 37.3225C11.2323 36.0382 13.3036 34.5569 13.9336 34.0413C11.9049 36.8819 10.6878 37.3882 10.6878 37.3225ZM19.4003 19.4538C20.1904 19.4538 20.1156 22.4632 19.5924 23.2788C19.1227 21.9757 19.1333 19.4538 19.4003 19.4538ZM16.7951 32.26C17.8307 30.6757 18.7169 28.7913 19.4323 27.1319C20.3185 28.5475 21.4503 29.6819 22.6461 30.46C20.4253 30.8632 18.4927 31.6882 16.7951 32.26ZM30.8461 31.7913C30.8461 31.7913 30.3122 32.3538 26.8635 31.06C30.6112 30.8163 31.2305 31.5663 30.8461 31.7913Z" fill="#F25050" fill-opacity="0.36"/>
</g>
<defs>
<clipPath id="clip0_15:1809">
<rect width="41" height="48" fill="white"/>
</clipPath>
</defs>
</svg>
