<svg width="32" height="32" viewBox="0 0 32 32" fill="none" xmlns="http://www.w3.org/2000/svg">
<path fill-rule="evenodd" clip-rule="evenodd" d="M4 13.6667C4 8.328 8.328 4 13.6667 4H18.3333C23.672 4 28 8.328 28 13.6667C28 19.0053 23.672 23.3333 18.3333 23.3333H17.8667V28C17.8667 28 4 25.6667 4 13.6667ZM18.4607 8.32133C19.1473 8.77733 19.6653 9.51667 19.6653 10.508C19.6653 11.56 19.2407 12.3333 18.5533 12.8067C18.282 12.9904 17.9825 13.1286 17.6667 13.216V14.2373C17.6667 14.3687 17.6408 14.4987 17.5905 14.62C17.5403 14.7413 17.4666 14.8516 17.3738 14.9444C17.2809 15.0373 17.1707 15.111 17.0494 15.1612C16.928 15.2115 16.798 15.2373 16.6667 15.2373C16.5353 15.2373 16.4053 15.2115 16.284 15.1612C16.1627 15.111 16.0524 15.0373 15.9596 14.9444C15.8667 14.8516 15.793 14.7413 15.7428 14.62C15.6925 14.4987 15.6667 14.3687 15.6667 14.2373V12.3727C15.6666 12.119 15.763 11.8747 15.9363 11.6894C16.1096 11.5041 16.3468 11.3916 16.6 11.3747C16.9693 11.35 17.2493 11.2767 17.4187 11.16C17.487 11.1147 17.5422 11.0521 17.5787 10.9787C17.6187 10.8987 17.6653 10.756 17.6653 10.5073C17.6653 10.2987 17.5833 10.1393 17.3533 9.986C17.092 9.81267 16.672 9.68467 16.1673 9.66867C15.6687 9.65267 15.184 9.75 14.8273 9.92267C14.47 10.096 14.3393 10.2907 14.302 10.434C14.2718 10.5637 14.2159 10.6861 14.1377 10.7939C14.0595 10.9017 13.9606 10.9929 13.8467 11.0619C13.7328 11.131 13.6063 11.1766 13.4745 11.1961C13.3427 11.2156 13.2084 11.2086 13.0794 11.1755C12.9504 11.1423 12.8293 11.0838 12.7232 11.0032C12.6172 10.9226 12.5283 10.8217 12.4618 10.7063C12.3952 10.5909 12.3524 10.4634 12.3359 10.3312C12.3193 10.199 12.3293 10.0649 12.3653 9.93667C12.5947 9.04267 13.264 8.45867 13.9553 8.12333C14.6487 7.78667 15.464 7.64467 16.2313 7.66933C16.9927 7.69333 17.806 7.88533 18.4607 8.32133ZM16.6667 19.3333C17.0203 19.3333 17.3594 19.1929 17.6095 18.9428C17.8595 18.6928 18 18.3536 18 18C18 17.6464 17.8595 17.3072 17.6095 17.0572C17.3594 16.8071 17.0203 16.6667 16.6667 16.6667C16.313 16.6667 15.9739 16.8071 15.7239 17.0572C15.4738 17.3072 15.3333 17.6464 15.3333 18C15.3333 18.3536 15.4738 18.6928 15.7239 18.9428C15.9739 19.1929 16.313 19.3333 16.6667 19.3333Z" fill="#CECECE"/>
</svg>
