<svg width="32" height="32" viewBox="0 0 32 32" fill="none" xmlns="http://www.w3.org/2000/svg">
<path d="M19.672 13.3333C20.96 13.3333 22.0054 14.3787 22.0054 15.6667V21.9987C22.0054 23.5903 21.3731 25.1168 20.2476 26.2423C19.1221 27.3677 17.5957 28 16.004 28C14.4124 28 12.8859 27.3677 11.7604 26.2423C10.635 25.1168 10.0027 23.5903 10.0027 21.9987V15.6667C10.0027 14.3787 11.0467 13.3333 12.336 13.3333H19.672ZM9.50802 13.3333C9.04135 13.896 8.74135 14.6 8.68135 15.3733L8.66802 15.6667V21.9987C8.66802 23.128 8.92402 24.1973 9.38002 25.152C8.58973 25.3634 7.7614 25.3903 6.95908 25.2304C6.15676 25.0706 5.40195 24.7284 4.75302 24.2302C4.10408 23.7321 3.57841 23.0914 3.21664 22.3576C2.85487 21.6239 2.6667 20.8168 2.66669 19.9987V15.6667C2.66671 15.0811 2.88692 14.5169 3.28359 14.0861C3.68027 13.6554 4.22442 13.3895 4.80802 13.3413L5.00002 13.3333H9.50802ZM22.5 13.3333H27C28.288 13.3333 29.3334 14.3787 29.3334 15.6667V20C29.3335 20.8176 29.1458 21.6242 28.7845 22.3576C28.4233 23.0911 27.8983 23.7316 27.2501 24.2298C26.6019 24.728 25.8478 25.0705 25.0461 25.2309C24.2445 25.3913 23.4167 25.3652 22.6267 25.1547C23.0267 24.3173 23.272 23.3947 23.3267 22.4187L23.3387 21.9987V15.6667C23.3387 14.78 23.024 13.9667 22.4987 13.3333H22.5ZM16 4C17.0609 4 18.0783 4.42143 18.8284 5.17157C19.5786 5.92172 20 6.93913 20 8C20 9.06087 19.5786 10.0783 18.8284 10.8284C18.0783 11.5786 17.0609 12 16 12C14.9392 12 13.9217 11.5786 13.1716 10.8284C12.4214 10.0783 12 9.06087 12 8C12 6.93913 12.4214 5.92172 13.1716 5.17157C13.9217 4.42143 14.9392 4 16 4ZM24.6667 5.33333C25.5507 5.33333 26.3986 5.68452 27.0237 6.30964C27.6488 6.93477 28 7.78261 28 8.66667C28 9.55072 27.6488 10.3986 27.0237 11.0237C26.3986 11.6488 25.5507 12 24.6667 12C23.7826 12 22.9348 11.6488 22.3097 11.0237C21.6845 10.3986 21.3334 9.55072 21.3334 8.66667C21.3334 7.78261 21.6845 6.93477 22.3097 6.30964C22.9348 5.68452 23.7826 5.33333 24.6667 5.33333ZM7.33335 5.33333C8.21741 5.33333 9.06526 5.68452 9.69038 6.30964C10.3155 6.93477 10.6667 7.78261 10.6667 8.66667C10.6667 9.55072 10.3155 10.3986 9.69038 11.0237C9.06526 11.6488 8.21741 12 7.33335 12C6.4493 12 5.60145 11.6488 4.97633 11.0237C4.35121 10.3986 4.00002 9.55072 4.00002 8.66667C4.00002 7.78261 4.35121 6.93477 4.97633 6.30964C5.60145 5.68452 6.4493 5.33333 7.33335 5.33333Z" fill="#CECECE"/>
</svg>
